<?xml version="1.0" encoding="UTF-8" standalone="no"?>
<svg
   xmlns:dc="http://purl.org/dc/elements/1.1/"
   xmlns:cc="http://creativecommons.org/ns#"
   xmlns:rdf="http://www.w3.org/1999/02/22-rdf-syntax-ns#"
   xmlns:svg="http://www.w3.org/2000/svg"
   xmlns="http://www.w3.org/2000/svg"
   xmlns:sodipodi="http://sodipodi.sourceforge.net/DTD/sodipodi-0.dtd"
   xmlns:inkscape="http://www.inkscape.org/namespaces/inkscape"
   width="64"
   height="64"
   version="1"
   id="svg12"
   sodipodi:docname="megab.svg"
   inkscape:version="0.92.2 5c3e80d, 2017-08-06">
  <metadata
     id="metadata18">
    <rdf:RDF>
      <cc:Work
         rdf:about="">
        <dc:format>image/svg+xml</dc:format>
        <dc:type
           rdf:resource="http://purl.org/dc/dcmitype/StillImage" />
      </cc:Work>
    </rdf:RDF>
  </metadata>
  <defs
     id="defs16">
    <linearGradient
       id="linearGradient6"
       gradientUnits="userSpaceOnUse"
       y2="517.8"
       x2="0"
       y1="545.8">
      <stop
         id="stop8"
         stop-color="#3889e9" />
      <stop
         id="stop10"
         stop-color="#5ea5fb"
         offset="1" />
    </linearGradient>
    <linearGradient
       gradientUnits="userSpaceOnUse"
       y2="301.3"
       x2="0"
       y1="653.96"
       id="0">
      <stop
         id="stop13"
         stop-color="#0a80fd" />
      <stop
         id="stop15"
         stop-color="#56c5fa"
         offset="1" />
    </linearGradient>
  </defs>
  <sodipodi:namedview
     pagecolor="#ffffff"
     bordercolor="#666666"
     borderopacity="1"
     objecttolerance="10"
     gridtolerance="10"
     guidetolerance="10"
     inkscape:pageopacity="0"
     inkscape:pageshadow="2"
     inkscape:window-width="1366"
     inkscape:window-height="740"
     id="namedview14"
     showgrid="false"
     inkscape:zoom="3.6875"
     inkscape:cx="79.457627"
     inkscape:cy="32"
     inkscape:window-x="0"
     inkscape:window-y="0"
     inkscape:window-maximized="1"
     inkscape:current-layer="svg12" />
  <path
     style="opacity:0.2"
     d="m 4.0507982,32.000818 c -0.0118,0.33399 -0.050799,0.661981 -0.050799,0.999972 C 3.9999996,48.512352 16.487647,61 31.99921,61 47.510773,61 59.99842,48.512352 59.99842,33.00079 c 0,-0.337671 -0.03904,-0.665262 -0.05078,-0.999972 C 59.419655,47.042394 47.172,59.000056 31.998428,59.000056 16.824456,59.000056 4.5772013,47.042394 4.0492162,32.000818 Z"
     id="path2" />
  <rect
     style="fill:#e32037"
     width="55.998"
     height="55.998"
     x="-60"
     y="-60"
     rx="27.999"
     ry="27.999"
     transform="matrix(0,-1,-1,0,0,0)"
     id="rect4" />
  <path
     style="opacity:0.1;fill:#ffffff"
     d="M 32 4.0019531 C 16.488437 4.0019531 4 16.488437 4 32 C 4 32.113445 4.0112809 32.224116 4.0175781 32.335938 C 4.3691114 17.134609 16.711158 5 32 5 C 47.288842 5 59.630889 17.134609 59.982422 32.335938 C 59.988693 32.224116 60 32.113445 60 32 C 60 16.488437 47.511563 4.0019531 32 4.0019531 z"
     id="path6" />
  <path
     style="opacity:0.2"
     d="m 15.999661,19.001184 0,27.999211 7.999775,0 0,-15.999549 7.999774,6.999803 7.999774,-6.999803 0,15.999549 7.999775,0 0,-27.999211 -7.999775,0 -7.999774,6.999803 -7.999774,-6.999803 z"
     id="path8" />
  <path
     style="fill:#ffffff"
     d="m 15.999661,18.001241 0,27.99921 7.999775,0 0,-15.999549 7.999774,6.999803 7.999774,-6.999803 0,15.999549 7.999775,0 0,-27.99921 -7.999775,0 -7.999774,6.999802 -7.999774,-6.999802 z"
     id="path10" />
  <path
     inkscape:connector-curvature="0"
     id="path2982"
     d="m 43.771926,48.573917 c 6.741938,-6.689301 11.50753,-11.59508 11.377001,-11.711675 -0.123594,-0.110358 -3.015246,-0.227984 -6.426018,-0.261389 L 42.521519,36.540143 42.394749,24.541339 42.26798,12.542534 H 31.749962 21.231932 l -0.12677,11.998805 -0.126769,11.998804 -6.336149,0.113195 c -4.111485,0.07343 -6.3361613,0.195372 -6.3361613,0.347241 0,0.453767 23.0556953,23.186145 23.4638223,23.134766 0.220119,-0.02773 5.620943,-5.230339 12.001843,-11.561408 z"
     style="fill:#000000" />
  <path
     inkscape:connector-curvature="0"
     id="path309"
     d="m 15.999656,18.001241 v 27.999213 h 7.99978 v -15.99955 l 7.99977,6.9998 7.99977,-6.9998 v 15.99955 h 7.99978 V 18.001241 h -7.99978 l -7.99977,6.999803 -7.99977,-6.999803 z"
     style="fill:#ffffff" />
</svg>
