<?xml version="1.0" encoding="UTF-8" standalone="no"?>
<svg
   xmlns:dc="http://purl.org/dc/elements/1.1/"
   xmlns:cc="http://creativecommons.org/ns#"
   xmlns:rdf="http://www.w3.org/1999/02/22-rdf-syntax-ns#"
   xmlns:svg="http://www.w3.org/2000/svg"
   xmlns="http://www.w3.org/2000/svg"
   xmlns:sodipodi="http://sodipodi.sourceforge.net/DTD/sodipodi-0.dtd"
   xmlns:inkscape="http://www.inkscape.org/namespaces/inkscape"
   width="16"
   height="16"
   version="1.1"
   id="svg7"
   sodipodi:docname="edit-paste-null.svg"
   inkscape:version="0.92.2 5c3e80d, 2017-08-06">
  <metadata
     id="metadata11">
    <rdf:RDF>
      <cc:Work
         rdf:about="">
        <dc:format>image/svg+xml</dc:format>
        <dc:type
           rdf:resource="http://purl.org/dc/dcmitype/StillImage" />
      </cc:Work>
    </rdf:RDF>
  </metadata>
  <sodipodi:namedview
     pagecolor="#ffffff"
     bordercolor="#666666"
     borderopacity="1"
     objecttolerance="10"
     gridtolerance="10"
     guidetolerance="10"
     inkscape:pageopacity="0"
     inkscape:pageshadow="2"
     inkscape:window-width="640"
     inkscape:window-height="480"
     id="namedview9"
     showgrid="false"
     inkscape:zoom="14.75"
     inkscape:cx="8"
     inkscape:cy="8"
     inkscape:window-x="0"
     inkscape:window-y="0"
     inkscape:window-maximized="0"
     inkscape:current-layer="svg7" />
  <defs
     id="defs3">
    <style
       id="current-color-scheme"
       type="text/css">
   .ColorScheme-Text { color:#d3dae3; } .ColorScheme-Highlight { color:#5294e2; }
  </style>
  </defs>
  <path
     style="fill:#1a1a1a"
     class="ColorScheme-Text"
     d="M 12.874,2.0231 12.512,1.7133 C 11.974,1.2533 11.297,1 10.606,1 9.6824,1 8.821,1.4335 8.2425,2.1892 L 2.6757,9.463 C 2.1656,10.129 1.9321,10.965 2.0171,11.819 2.1022,12.671 2.4955,13.437 3.1258,13.976 L 3.488,14.286 C 4.0255,14.747 4.7025,15 5.3944,15 5.5012,15 5.6093,14.995 5.7156,14.983 6.5169,14.893 7.2388,14.481 7.7453,13.826 7.747,13.824 7.7479,13.822 11.501,8.9188 12.17,8.0455 12.041,6.7598 11.216,6.0529 L 11.026,5.8911 C 10.684,5.599 10.255,5.4382 9.8153,5.4382 9.229,5.4382 8.6822,5.7134 8.3153,6.1933 L 4.5662,11.091 C 4.3213,11.412 4.3682,11.882 4.671,12.141 4.7963,12.249 4.9539,12.308 5.1149,12.308 5.3293,12.308 5.5296,12.207 5.6645,12.031 L 9.4133,7.1329 C 9.511,7.0045 9.6567,6.931 9.8136,6.931 9.9327,6.931 10.044,6.9728 10.137,7.0518 L 10.326,7.2142 C 10.433,7.3052 10.5,7.4356 10.515,7.58 10.528,7.7252 10.489,7.867 10.402,7.9799 L 6.6583,12.872 C 6.3491,13.275 5.8888,13.507 5.3955,13.507 5.0257,13.507 4.6637,13.372 4.3764,13.126 L 4.0142,12.816 C 3.6784,12.529 3.4677,12.12 3.4224,11.664 3.3769,11.208 3.502,10.761 3.7747,10.404 L 9.3422,3.1308 C 9.6516,2.7269 10.112,2.4952 10.606,2.4952 10.976,2.4952 11.338,2.6306 11.625,2.8763 L 11.987,3.1861 C 12.682,3.7813 12.79,4.8637 12.227,5.5991 12.109,5.7542 12.054,5.9488 12.074,6.1473 12.094,6.3456 12.185,6.524 12.333,6.6494 12.458,6.7566 12.616,6.8157 12.776,6.8157 12.991,6.8157 13.191,6.7148 13.326,6.5388 13.835,5.8733 14.068,5.0368 13.983,4.1825 13.897,3.328 13.504,2.5614 12.874,2.0231 Z"
     id="path5" />
</svg>
