<?xml version="1.0" encoding="UTF-8" standalone="no"?>
<svg
   xmlns:dc="http://purl.org/dc/elements/1.1/"
   xmlns:cc="http://creativecommons.org/ns#"
   xmlns:rdf="http://www.w3.org/1999/02/22-rdf-syntax-ns#"
   xmlns:svg="http://www.w3.org/2000/svg"
   xmlns="http://www.w3.org/2000/svg"
   xmlns:xlink="http://www.w3.org/1999/xlink"
   xmlns:sodipodi="http://sodipodi.sourceforge.net/DTD/sodipodi-0.dtd"
   xmlns:inkscape="http://www.inkscape.org/namespaces/inkscape"
   viewBox="0 0 32 32"
   id="svg2"
   version="1.1"
   inkscape:version="0.92.2 2405546, 2018-03-11"
   sodipodi:docname="system-reboot.svg">
  <metadata
     id="metadata10">
    <rdf:RDF>
      <cc:Work
         rdf:about="">
        <dc:format>image/svg+xml</dc:format>
        <dc:type
           rdf:resource="http://purl.org/dc/dcmitype/StillImage" />
        <dc:title />
      </cc:Work>
    </rdf:RDF>
  </metadata>
  <sodipodi:namedview
     pagecolor="#ffffff"
     bordercolor="#666666"
     borderopacity="1"
     objecttolerance="10"
     gridtolerance="10"
     guidetolerance="10"
     inkscape:pageopacity="0"
     inkscape:pageshadow="2"
     inkscape:window-width="1366"
     inkscape:window-height="740"
     id="namedview8"
     showgrid="false"
     inkscape:zoom="7.375"
     inkscape:cx="-6.5762712"
     inkscape:cy="16"
     inkscape:window-x="0"
     inkscape:window-y="0"
     inkscape:window-maximized="1"
     inkscape:current-layer="svg2" />
  <defs
     id="defs3051">
    <linearGradient
       inkscape:collect="always"
       id="linearGradient4138">
      <stop
         style="stop-color:#0081ff;stop-opacity:1"
         offset="0"
         id="stop4140" />
      <stop
         style="stop-color:#00f2ff;stop-opacity:1"
         offset="1"
         id="stop4142" />
    </linearGradient>
    <style
       type="text/css"
       id="current-color-scheme">
      .ColorScheme-Text {
        color:#f2f2f2;
      }
      </style>
    <linearGradient
       inkscape:collect="always"
       xlink:href="#linearGradient4138"
       id="linearGradient4144"
       x1="15.18644"
       y1="28.474577"
       x2="15.728813"
       y2="3.1186438"
       gradientUnits="userSpaceOnUse"
       gradientTransform="matrix(1.25,0,0,1.25,-4,-4)" />
  </defs>
  <path
     style="color:#f2f2f2;fill:url(#linearGradient4144);fill-opacity:1;stroke:none;stroke-width:1.25"
     d="M 16,1 A 15,15 0 0 0 8.39502,3.0898438 L 15.116211,9.8134763 16,8.924805 10.494629,3.4194337 A 13.75,13.75 0 0 1 16,2.25 13.75,13.75 0 0 1 29.75,16 13.75,13.75 0 0 1 27.994629,22.689453 l 0.915527,0.910644 A 15,15 0 0 0 31,16 15,15 0 0 0 16,1 Z M 3.0898438,8.39502 A 15,15 0 0 0 1,16 15,15 0 0 0 16,31 15,15 0 0 0 23.60498,28.910156 L 16.883789,22.186524 16,23.070312 21.507812,28.575684 A 13.75,13.75 0 0 1 16,29.75 13.75,13.75 0 0 1 2.25,16 13.75,13.75 0 0 1 4.0053713,9.3105475 Z"
     class="ColorScheme-Text"
     id="path6"
     inkscape:connector-curvature="0" />
</svg>
