<?xml version="1.0" encoding="UTF-8" standalone="no"?>
<svg
   xmlns:dc="http://purl.org/dc/elements/1.1/"
   xmlns:cc="http://creativecommons.org/ns#"
   xmlns:rdf="http://www.w3.org/1999/02/22-rdf-syntax-ns#"
   xmlns:svg="http://www.w3.org/2000/svg"
   xmlns="http://www.w3.org/2000/svg"
   xmlns:xlink="http://www.w3.org/1999/xlink"
   xmlns:sodipodi="http://sodipodi.sourceforge.net/DTD/sodipodi-0.dtd"
   xmlns:inkscape="http://www.inkscape.org/namespaces/inkscape"
   viewBox="0 0 32 32"
   id="svg2"
   version="1.1"
   inkscape:version="0.92.2 2405546, 2018-03-11"
   sodipodi:docname="system-lock-screen.svg">
  <metadata
     id="metadata10">
    <rdf:RDF>
      <cc:Work
         rdf:about="">
        <dc:format>image/svg+xml</dc:format>
        <dc:type
           rdf:resource="http://purl.org/dc/dcmitype/StillImage" />
        <dc:title />
      </cc:Work>
    </rdf:RDF>
  </metadata>
  <sodipodi:namedview
     pagecolor="#ffffff"
     bordercolor="#666666"
     borderopacity="1"
     objecttolerance="10"
     gridtolerance="10"
     guidetolerance="10"
     inkscape:pageopacity="0"
     inkscape:pageshadow="2"
     inkscape:window-width="1366"
     inkscape:window-height="740"
     id="namedview8"
     showgrid="false"
     inkscape:zoom="7.375"
     inkscape:cx="16"
     inkscape:cy="16"
     inkscape:window-x="0"
     inkscape:window-y="0"
     inkscape:window-maximized="1"
     inkscape:current-layer="svg2" />
  <defs
     id="defs3051">
    <linearGradient
       inkscape:collect="always"
       id="linearGradient4138">
      <stop
         style="stop-color:#d47e00;stop-opacity:1"
         offset="0"
         id="stop4140" />
      <stop
         style="stop-color:#ff3600;stop-opacity:1"
         offset="1"
         id="stop4142" />
    </linearGradient>
    <style
       type="text/css"
       id="current-color-scheme">
      .ColorScheme-Text {
        color:#f2f2f2;
      }
      </style>
    <linearGradient
       inkscape:collect="always"
       xlink:href="#linearGradient4138"
       id="linearGradient4144"
       x1="15.254237"
       y1="28.745762"
       x2="14.983051"
       y2="2.9830508"
       gradientUnits="userSpaceOnUse"
       gradientTransform="matrix(1.25,0,0,1.25,-4,-4)" />
  </defs>
  <path
     style="color:#f2f2f2;fill:url(#linearGradient4144);fill-opacity:1;stroke:none;stroke-width:1.25"
     d="M 16,1 C 7.715729,1 1,7.7157287 1,16 1,24.284271 7.715729,31 16,31 24.284271,31 31,24.284271 31,16 31,7.7157287 24.284271,1 16,1 Z m 0,1.25 C 23.593915,2.25 29.75,8.406085 29.75,16 29.75,23.593915 23.593915,29.75 16,29.75 8.406085,29.75 2.25,23.593915 2.25,16 2.25,8.406085 8.406085,2.25 16,2.25 Z M 16,6 c -2.77,0 -5,2.23 -5,5 v 5 H 8.5 V 17.25 26 h 1.25 12.5 1.25 V 16 H 22.25 21 V 11 C 21,8.23 18.77,6 16,6 Z m 0,1.25 c 2.0775,0 3.75,1.95125 3.75,4.375 V 16 h -7.5 V 11.625 C 12.25,9.20125 13.9225,7.25 16,7.25 Z m -6.25,10 h 12.5 v 7.5 H 9.75 Z"
     class="ColorScheme-Text"
     id="path6"
     inkscape:connector-curvature="0" />
</svg>
